<?xml version="1.0" encoding="UTF-8" standalone="no"?><!-- Generator: Gravit.io -->
<svg xmlns="http://www.w3.org/2000/svg" style="isolation:isolate"
     viewBox="0 0 192 192" width="192pt" height="192pt">
    <defs>
        <clipPath id="_clipPath_9pjLZxdi2IzStFfgUT7rmemvDV6cna9S">
            <rect width="192" height="192"/>
        </clipPath>
    </defs>
    <g clip-path="url(#_clipPath_9pjLZxdi2IzStFfgUT7rmemvDV6cna9S)">
        <path d=" M 159.993 21.48 C 148.868 20.105 29.743 15.98 27.993 26.48 C 26.243 36.98 21.993 172.605 31.993 172.48 C 41.993 172.355 165.743 172.48 164.993 165.48 C 164.243 158.48 171.118 22.855 159.993 21.48 Z "
              fill="rgb(134,142,150)"/>
        <path d=" M 61.936 74.683 L 61.936 74.683 L 55.344 73.218 L 55.344 73.218 Q 53 67.212 53 62.232 L 53 62.232 L 53 62.232 Q 53 53.296 59.794 48.462 L 59.794 48.462 L 59.794 48.462 Q 66.588 43.628 76.523 43.628 L 76.523 43.628 L 76.523 43.628 Q 91.279 43.628 100.338 52.198 L 100.338 52.198 L 100.338 52.198 Q 109.396 60.767 109.396 75.708 L 109.396 75.708 L 109.396 75.708 Q 109.396 82.007 106.921 86.768 L 106.921 86.768 L 106.921 86.768 Q 104.445 91.529 100.876 94.605 L 100.876 94.605 L 100.876 94.605 Q 97.308 97.681 93.667 100.831 L 93.667 100.831 L 93.667 100.831 Q 90.026 103.98 87.259 108.887 L 87.259 108.887 L 87.259 108.887 Q 84.492 113.794 84.055 120.24 L 84.055 120.24 L 84.055 120.24 Q 82.736 124.781 78.928 124.781 L 78.928 124.781 L 78.928 124.781 Q 76.145 124.781 73.801 122.291 L 73.801 122.291 L 73.801 122.291 Q 71.457 119.8 70.871 115.406 L 70.871 115.406 L 70.871 115.406 Q 70.871 109.253 73.801 104.419 L 73.801 104.419 L 73.801 104.419 Q 76.73 99.585 80.979 96.29 L 80.979 96.29 L 80.979 96.29 Q 85.227 92.994 89.401 89.698 L 89.401 89.698 L 89.401 89.698 Q 93.576 86.402 96.506 81.421 L 96.506 81.421 L 96.506 81.421 Q 99.436 76.441 99.436 70.142 L 99.436 70.142 L 99.436 70.142 Q 99.436 62.232 92.404 57.471 L 92.404 57.471 L 92.404 57.471 Q 85.373 52.71 76.73 52.71 L 76.73 52.71 L 76.73 52.71 Q 69.846 52.71 65.085 56.226 L 65.085 56.226 L 65.085 56.226 Q 60.324 59.742 60.324 66.333 L 60.324 66.333 L 60.324 66.333 Q 60.324 70.289 61.936 74.683 Z  M 76.438 132.544 L 76.438 132.544 L 76.438 132.544 Q 80.393 132.544 83.029 135.987 L 83.029 135.987 L 83.029 135.987 Q 85.666 139.429 85.666 143.824 L 85.666 143.824 L 85.666 143.824 Q 85.666 147.046 84.128 149.024 L 84.128 149.024 L 84.128 149.024 Q 82.59 151.001 79.953 151.001 L 79.953 151.001 L 79.953 151.001 Q 75.852 151.001 73.508 147.632 L 73.508 147.632 L 73.508 147.632 Q 71.164 144.263 71.164 139.722 L 71.164 139.722 L 71.164 139.722 Q 71.164 136.5 72.556 134.522 L 72.556 134.522 L 72.556 134.522 Q 73.947 132.544 76.438 132.544 Z  M 125.949 125.074 L 125.949 125.074 L 119.357 123.609 L 119.357 123.609 Q 118.625 113.941 115.549 46.851 L 115.549 46.851 L 115.549 46.851 Q 116.135 41.138 120.676 41.138 L 120.676 41.138 L 120.676 41.138 Q 123.605 41.138 126.096 43.628 L 126.096 43.628 L 126.096 43.628 Q 128.586 46.119 128.732 49.781 L 128.732 49.781 L 128.732 49.781 Q 128.293 57.691 127.707 84.205 L 127.707 84.205 L 127.707 84.205 Q 127.121 110.718 125.949 125.074 Z  M 121.555 133.277 L 121.555 133.277 L 121.555 133.277 Q 125.51 133.277 128.146 136.719 L 128.146 136.719 L 128.146 136.719 Q 130.783 140.162 130.783 144.556 L 130.783 144.556 L 130.783 144.556 Q 130.783 147.779 129.245 149.756 L 129.245 149.756 L 129.245 149.756 Q 127.707 151.734 125.07 151.734 L 125.07 151.734 L 125.07 151.734 Q 120.969 151.734 118.625 148.365 L 118.625 148.365 L 118.625 148.365 Q 116.281 144.996 116.281 140.455 L 116.281 140.455 L 116.281 140.455 Q 116.281 137.232 117.673 135.254 L 117.673 135.254 L 117.673 135.254 Q 119.064 133.277 121.555 133.277 Z "
              fill="rgb(255,255,255)"/>
    </g>
</svg>
